<mxfile host="app.diagrams.net" modified="2024-05-04T07:39:39.234Z" agent="Mozilla/5.0 (Windows NT 10.0; Win64; x64) AppleWebKit/537.36 (KHTML, like Gecko) Chrome/123.0.0.0 Safari/537.36 OPR/109.0.0.0" etag="gyqYjnneyxPjDWRxqe9s" version="24.3.1" type="device">
  <diagram id="R2lEEEUBdFMjLlhIrx00" name="Page-1">
    <mxGraphModel dx="1624" dy="912" grid="0" gridSize="10" guides="0" tooltips="1" connect="0" arrows="1" fold="1" page="0" pageScale="1" pageWidth="850" pageHeight="1100" background="#000000" math="0" shadow="0" extFonts="Permanent Marker^https://fonts.googleapis.com/css?family=Permanent+Marker">
      <root>
        <mxCell id="0" />
        <mxCell id="1" parent="0" />
        <mxCell id="NhWhDlvbDUuo_tMWZjLB-1" value="ROL" style="rounded=1;whiteSpace=wrap;html=1;labelBackgroundColor=none;fillColor=#182E3E;strokeColor=#FFFFFF;fontColor=#FFFFFF;" parent="1" vertex="1">
          <mxGeometry x="100" y="325" width="120" height="60" as="geometry" />
        </mxCell>
        <mxCell id="NhWhDlvbDUuo_tMWZjLB-2" value="USUARIO" style="rounded=1;whiteSpace=wrap;html=1;labelBackgroundColor=none;fillColor=#182E3E;strokeColor=#FFFFFF;fontColor=#FFFFFF;" parent="1" vertex="1">
          <mxGeometry x="530" y="340" width="120" height="60" as="geometry" />
        </mxCell>
        <mxCell id="NhWhDlvbDUuo_tMWZjLB-3" value="COLEGIO" style="rounded=1;whiteSpace=wrap;html=1;labelBackgroundColor=none;fillColor=#182E3E;strokeColor=#FFFFFF;fontColor=#FFFFFF;" parent="1" vertex="1">
          <mxGeometry x="1050" y="595" width="120" height="60" as="geometry" />
        </mxCell>
        <mxCell id="NhWhDlvbDUuo_tMWZjLB-4" value="COMENTARIO" style="rounded=1;whiteSpace=wrap;html=1;labelBackgroundColor=none;fillColor=#182E3E;strokeColor=#FFFFFF;fontColor=#FFFFFF;" parent="1" vertex="1">
          <mxGeometry x="330" y="535" width="120" height="60" as="geometry" />
        </mxCell>
        <mxCell id="NhWhDlvbDUuo_tMWZjLB-5" value="RESPUESTA" style="rounded=1;whiteSpace=wrap;html=1;labelBackgroundColor=none;fillColor=#182E3E;strokeColor=#FFFFFF;fontColor=#FFFFFF;" parent="1" vertex="1">
          <mxGeometry x="620" y="757.5" width="120" height="60" as="geometry" />
        </mxCell>
        <mxCell id="NhWhDlvbDUuo_tMWZjLB-6" value="VALORACION" style="rounded=1;whiteSpace=wrap;html=1;labelBackgroundColor=none;fillColor=#182E3E;strokeColor=#FFFFFF;fontColor=#FFFFFF;" parent="1" vertex="1">
          <mxGeometry x="290" y="890" width="120" height="60" as="geometry" />
        </mxCell>
        <mxCell id="NhWhDlvbDUuo_tMWZjLB-7" value="ACTIVIDAD" style="rounded=1;whiteSpace=wrap;html=1;labelBackgroundColor=none;fillColor=#182E3E;strokeColor=#FFFFFF;fontColor=#FFFFFF;" parent="1" vertex="1">
          <mxGeometry x="1000" y="310" width="120" height="60" as="geometry" />
        </mxCell>
        <mxCell id="NhWhDlvbDUuo_tMWZjLB-9" value="&lt;u&gt;Id_rol&lt;/u&gt;" style="ellipse;whiteSpace=wrap;html=1;labelBackgroundColor=none;fillColor=#182E3E;strokeColor=#FFFFFF;fontColor=#FFFFFF;" parent="1" vertex="1">
          <mxGeometry x="30" y="255" width="60" height="40" as="geometry" />
        </mxCell>
        <mxCell id="NhWhDlvbDUuo_tMWZjLB-10" value="" style="endArrow=none;html=1;rounded=0;exitX=0.024;exitY=0.055;exitDx=0;exitDy=0;labelBackgroundColor=none;fontColor=default;exitPerimeter=0;strokeColor=#23445D;" parent="1" source="NhWhDlvbDUuo_tMWZjLB-1" edge="1">
          <mxGeometry width="50" height="50" relative="1" as="geometry">
            <mxPoint x="100" y="325" as="sourcePoint" />
            <mxPoint x="70" y="295" as="targetPoint" />
          </mxGeometry>
        </mxCell>
        <mxCell id="NhWhDlvbDUuo_tMWZjLB-11" value="&lt;u&gt;Id_comentario&lt;/u&gt;" style="ellipse;whiteSpace=wrap;html=1;labelBackgroundColor=none;fillColor=#182E3E;strokeColor=#FFFFFF;fontColor=#FFFFFF;" parent="1" vertex="1">
          <mxGeometry x="190" y="535" width="90" height="40" as="geometry" />
        </mxCell>
        <mxCell id="NhWhDlvbDUuo_tMWZjLB-13" value="&lt;u&gt;Id_respuesta&lt;/u&gt;" style="ellipse;whiteSpace=wrap;html=1;labelBackgroundColor=none;fillColor=#182E3E;strokeColor=#FFFFFF;fontColor=#FFFFFF;" parent="1" vertex="1">
          <mxGeometry x="510" y="695" width="120" height="40" as="geometry" />
        </mxCell>
        <mxCell id="NhWhDlvbDUuo_tMWZjLB-14" value="&lt;u&gt;Id_valoracion&lt;/u&gt;" style="ellipse;whiteSpace=wrap;html=1;labelBackgroundColor=none;fillColor=#182E3E;strokeColor=#FFFFFF;fontColor=#FFFFFF;" parent="1" vertex="1">
          <mxGeometry x="231" y="751.5" width="110" height="40" as="geometry" />
        </mxCell>
        <mxCell id="NhWhDlvbDUuo_tMWZjLB-15" value="&lt;u&gt;Id_usuario&lt;/u&gt;" style="ellipse;whiteSpace=wrap;html=1;labelBackgroundColor=none;fillColor=#182E3E;strokeColor=#FFFFFF;fontColor=#FFFFFF;" parent="1" vertex="1">
          <mxGeometry x="398" y="294" width="70" height="40" as="geometry" />
        </mxCell>
        <mxCell id="NhWhDlvbDUuo_tMWZjLB-16" value="&lt;u&gt;Id_actividad&lt;/u&gt;" style="ellipse;whiteSpace=wrap;html=1;labelBackgroundColor=none;fillColor=#182E3E;strokeColor=#FFFFFF;fontColor=#FFFFFF;" parent="1" vertex="1">
          <mxGeometry x="890" y="250" width="100" height="40" as="geometry" />
        </mxCell>
        <mxCell id="NhWhDlvbDUuo_tMWZjLB-18" value="&lt;u&gt;Id_colegio&lt;/u&gt;" style="ellipse;whiteSpace=wrap;html=1;labelBackgroundColor=none;fillColor=#182E3E;strokeColor=#FFFFFF;fontColor=#FFFFFF;" parent="1" vertex="1">
          <mxGeometry x="930" y="490" width="70" height="40" as="geometry" />
        </mxCell>
        <mxCell id="NhWhDlvbDUuo_tMWZjLB-19" value="" style="endArrow=none;html=1;rounded=0;exitX=0.714;exitY=1;exitDx=0;exitDy=0;exitPerimeter=0;entryX=0;entryY=0.5;entryDx=0;entryDy=0;labelBackgroundColor=none;fontColor=default;strokeColor=#23445D;" parent="1" source="NhWhDlvbDUuo_tMWZjLB-13" target="NhWhDlvbDUuo_tMWZjLB-5" edge="1">
          <mxGeometry width="50" height="50" relative="1" as="geometry">
            <mxPoint x="550" y="702.5" as="sourcePoint" />
            <mxPoint x="560" y="762.5" as="targetPoint" />
          </mxGeometry>
        </mxCell>
        <mxCell id="NhWhDlvbDUuo_tMWZjLB-20" value="" style="endArrow=none;html=1;rounded=0;entryX=0.5;entryY=1;entryDx=0;entryDy=0;labelBackgroundColor=none;fontColor=default;strokeColor=#23445D;" parent="1" target="NhWhDlvbDUuo_tMWZjLB-14" edge="1">
          <mxGeometry width="50" height="50" relative="1" as="geometry">
            <mxPoint x="290" y="900" as="sourcePoint" />
            <mxPoint x="250" y="870" as="targetPoint" />
          </mxGeometry>
        </mxCell>
        <mxCell id="NhWhDlvbDUuo_tMWZjLB-21" value="" style="endArrow=none;html=1;rounded=0;exitX=0;exitY=0.5;exitDx=0;exitDy=0;labelBackgroundColor=none;fontColor=default;strokeColor=#23445D;" parent="1" source="NhWhDlvbDUuo_tMWZjLB-7" edge="1">
          <mxGeometry width="50" height="50" relative="1" as="geometry">
            <mxPoint x="900" y="340" as="sourcePoint" />
            <mxPoint x="950" y="290" as="targetPoint" />
          </mxGeometry>
        </mxCell>
        <mxCell id="NhWhDlvbDUuo_tMWZjLB-23" value="" style="endArrow=none;html=1;rounded=0;exitX=0.033;exitY=0.026;exitDx=0;exitDy=0;labelBackgroundColor=none;fontColor=default;exitPerimeter=0;strokeColor=#23445D;" parent="1" source="NhWhDlvbDUuo_tMWZjLB-2" target="NhWhDlvbDUuo_tMWZjLB-15" edge="1">
          <mxGeometry width="50" height="50" relative="1" as="geometry">
            <mxPoint x="450" y="355" as="sourcePoint" />
            <mxPoint x="500" y="305" as="targetPoint" />
          </mxGeometry>
        </mxCell>
        <mxCell id="NhWhDlvbDUuo_tMWZjLB-24" value="" style="endArrow=none;html=1;rounded=0;entryX=0.5;entryY=1;entryDx=0;entryDy=0;exitX=0.049;exitY=0.01;exitDx=0;exitDy=0;exitPerimeter=0;labelBackgroundColor=none;fontColor=default;strokeColor=#23445D;" parent="1" source="NhWhDlvbDUuo_tMWZjLB-3" target="NhWhDlvbDUuo_tMWZjLB-18" edge="1">
          <mxGeometry width="50" height="50" relative="1" as="geometry">
            <mxPoint x="980" y="615" as="sourcePoint" />
            <mxPoint x="1020" y="575" as="targetPoint" />
            <Array as="points" />
          </mxGeometry>
        </mxCell>
        <mxCell id="NhWhDlvbDUuo_tMWZjLB-25" value="" style="endArrow=none;html=1;rounded=0;exitX=0;exitY=0.25;exitDx=0;exitDy=0;entryX=1;entryY=0.5;entryDx=0;entryDy=0;labelBackgroundColor=none;fontColor=default;strokeColor=#23445D;" parent="1" source="NhWhDlvbDUuo_tMWZjLB-4" target="NhWhDlvbDUuo_tMWZjLB-11" edge="1">
          <mxGeometry width="50" height="50" relative="1" as="geometry">
            <mxPoint x="335" y="535" as="sourcePoint" />
            <mxPoint x="275" y="515" as="targetPoint" />
          </mxGeometry>
        </mxCell>
        <mxCell id="NhWhDlvbDUuo_tMWZjLB-26" value="Tipo" style="ellipse;whiteSpace=wrap;html=1;labelBackgroundColor=none;fillColor=#182E3E;strokeColor=#FFFFFF;fontColor=#FFFFFF;" parent="1" vertex="1">
          <mxGeometry x="120" y="240" width="90" height="40" as="geometry" />
        </mxCell>
        <mxCell id="NhWhDlvbDUuo_tMWZjLB-28" value="" style="endArrow=none;html=1;rounded=0;entryX=0.5;entryY=0;entryDx=0;entryDy=0;exitX=0.411;exitY=0.975;exitDx=0;exitDy=0;exitPerimeter=0;labelBackgroundColor=none;fontColor=default;strokeColor=#23445D;" parent="1" source="NhWhDlvbDUuo_tMWZjLB-26" target="NhWhDlvbDUuo_tMWZjLB-1" edge="1">
          <mxGeometry width="50" height="50" relative="1" as="geometry">
            <mxPoint x="160" y="285" as="sourcePoint" />
            <mxPoint x="200" y="335" as="targetPoint" />
          </mxGeometry>
        </mxCell>
        <mxCell id="NhWhDlvbDUuo_tMWZjLB-29" value="Nombre" style="ellipse;whiteSpace=wrap;html=1;labelBackgroundColor=none;fillColor=#182E3E;strokeColor=#FFFFFF;fontColor=#FFFFFF;" parent="1" vertex="1">
          <mxGeometry x="449" y="239" width="80" height="40" as="geometry" />
        </mxCell>
        <mxCell id="NhWhDlvbDUuo_tMWZjLB-30" value="Email" style="ellipse;whiteSpace=wrap;html=1;labelBackgroundColor=none;fillColor=#182E3E;strokeColor=#FFFFFF;fontColor=#FFFFFF;" parent="1" vertex="1">
          <mxGeometry x="608" y="232" width="70" height="40" as="geometry" />
        </mxCell>
        <mxCell id="NhWhDlvbDUuo_tMWZjLB-31" value="Password" style="ellipse;whiteSpace=wrap;html=1;labelBackgroundColor=none;fillColor=#182E3E;strokeColor=#FFFFFF;fontColor=#FFFFFF;" parent="1" vertex="1">
          <mxGeometry x="688" y="221" width="80" height="40" as="geometry" />
        </mxCell>
        <mxCell id="NhWhDlvbDUuo_tMWZjLB-34" value="Nombre" style="ellipse;whiteSpace=wrap;html=1;labelBackgroundColor=none;fillColor=#182E3E;strokeColor=#FFFFFF;fontColor=#FFFFFF;" parent="1" vertex="1">
          <mxGeometry x="1070" y="535" width="60" height="40" as="geometry" />
        </mxCell>
        <mxCell id="NhWhDlvbDUuo_tMWZjLB-35" value="Provincia" style="ellipse;whiteSpace=wrap;html=1;labelBackgroundColor=none;fillColor=#182E3E;strokeColor=#FFFFFF;fontColor=#FFFFFF;" parent="1" vertex="1">
          <mxGeometry x="1140" y="515" width="90" height="55" as="geometry" />
        </mxCell>
        <mxCell id="NhWhDlvbDUuo_tMWZjLB-36" value="Localidad" style="ellipse;whiteSpace=wrap;html=1;labelBackgroundColor=none;fillColor=#182E3E;strokeColor=#FFFFFF;fontColor=#FFFFFF;" parent="1" vertex="1">
          <mxGeometry x="1080" y="465" width="100" height="50" as="geometry" />
        </mxCell>
        <mxCell id="NhWhDlvbDUuo_tMWZjLB-37" value="Direccion" style="ellipse;whiteSpace=wrap;html=1;labelBackgroundColor=none;fillColor=#182E3E;strokeColor=#FFFFFF;fontColor=#FFFFFF;" parent="1" vertex="1">
          <mxGeometry x="840" y="500" width="80" height="50" as="geometry" />
        </mxCell>
        <mxCell id="NhWhDlvbDUuo_tMWZjLB-38" value="Web&lt;span style=&quot;color: rgba(0, 0, 0, 0); font-family: monospace; font-size: 0px; text-align: start; text-wrap: nowrap;&quot;&gt;%3CmxGraphModel%3E%3Croot%3E%3CmxCell%20id%3D%220%22%2F%3E%3CmxCell%20id%3D%221%22%20parent%3D%220%22%2F%3E%3CmxCell%20id%3D%222%22%20value%3D%22%22%20style%3D%22ellipse%3BwhiteSpace%3Dwrap%3Bhtml%3D1%3B%22%20vertex%3D%221%22%20parent%3D%221%22%3E%3CmxGeometry%20x%3D%22360%22%20y%3D%22560%22%20width%3D%22120%22%20height%3D%2280%22%20as%3D%22geometry%22%2F%3E%3C%2FmxCell%3E%3C%2Froot%3E%3C%2FmxGraphModel%3E&lt;/span&gt;" style="ellipse;whiteSpace=wrap;html=1;labelBackgroundColor=none;fillColor=#182E3E;strokeColor=#FFFFFF;fontColor=#FFFFFF;" parent="1" vertex="1">
          <mxGeometry x="915" y="672" width="65" height="40" as="geometry" />
        </mxCell>
        <mxCell id="NhWhDlvbDUuo_tMWZjLB-39" value="Email" style="ellipse;whiteSpace=wrap;html=1;labelBackgroundColor=none;fillColor=#182E3E;strokeColor=#FFFFFF;fontColor=#FFFFFF;" parent="1" vertex="1">
          <mxGeometry x="1039" y="709" width="80" height="50" as="geometry" />
        </mxCell>
        <mxCell id="NhWhDlvbDUuo_tMWZjLB-40" value="IMAGEN" style="rounded=1;whiteSpace=wrap;html=1;labelBackgroundColor=none;fillColor=#182E3E;strokeColor=#FFFFFF;fontColor=#FFFFFF;" parent="1" vertex="1">
          <mxGeometry x="1090" y="920" width="120" height="60" as="geometry" />
        </mxCell>
        <mxCell id="NhWhDlvbDUuo_tMWZjLB-41" value="Denominacion" style="ellipse;whiteSpace=wrap;html=1;labelBackgroundColor=none;fillColor=#182E3E;strokeColor=#FFFFFF;fontColor=#FFFFFF;" parent="1" vertex="1">
          <mxGeometry x="1322" y="622" width="90" height="50" as="geometry" />
        </mxCell>
        <mxCell id="NhWhDlvbDUuo_tMWZjLB-42" value="Naturaleza" style="ellipse;whiteSpace=wrap;html=1;labelBackgroundColor=none;fillColor=#182E3E;strokeColor=#FFFFFF;fontColor=#FFFFFF;" parent="1" vertex="1">
          <mxGeometry x="1305" y="434" width="100" height="60" as="geometry" />
        </mxCell>
        <mxCell id="NhWhDlvbDUuo_tMWZjLB-43" value="Comedor" style="ellipse;whiteSpace=wrap;html=1;labelBackgroundColor=none;fillColor=#182E3E;strokeColor=#FFFFFF;fontColor=#FFFFFF;" parent="1" vertex="1">
          <mxGeometry x="1278" y="671" width="100" height="50" as="geometry" />
        </mxCell>
        <mxCell id="NhWhDlvbDUuo_tMWZjLB-44" value="Localizacion" style="ellipse;whiteSpace=wrap;html=1;labelBackgroundColor=none;fillColor=#182E3E;strokeColor=#FFFFFF;fontColor=#FFFFFF;" parent="1" vertex="1">
          <mxGeometry x="1209" y="448" width="90" height="50" as="geometry" />
        </mxCell>
        <mxCell id="NhWhDlvbDUuo_tMWZjLB-45" value="Telefono" style="ellipse;whiteSpace=wrap;html=1;labelBackgroundColor=none;fillColor=#182E3E;strokeColor=#FFFFFF;fontColor=#FFFFFF;" parent="1" vertex="1">
          <mxGeometry x="1246" y="591" width="90" height="50" as="geometry" />
        </mxCell>
        <mxCell id="NhWhDlvbDUuo_tMWZjLB-46" value="Concierto" style="ellipse;whiteSpace=wrap;html=1;labelBackgroundColor=none;fillColor=#182E3E;strokeColor=#FFFFFF;fontColor=#FFFFFF;" parent="1" vertex="1">
          <mxGeometry x="1300" y="730" width="90" height="50" as="geometry" />
        </mxCell>
        <mxCell id="NhWhDlvbDUuo_tMWZjLB-48" value="" style="endArrow=none;html=1;rounded=0;exitX=0.089;exitY=0.221;exitDx=0;exitDy=0;exitPerimeter=0;labelBackgroundColor=none;fontColor=default;entryX=0.95;entryY=1.017;entryDx=0;entryDy=0;entryPerimeter=0;strokeColor=#23445D;" parent="1" source="NhWhDlvbDUuo_tMWZjLB-46" edge="1" target="NhWhDlvbDUuo_tMWZjLB-3">
          <mxGeometry width="50" height="50" relative="1" as="geometry">
            <mxPoint x="1100" y="705" as="sourcePoint" />
            <mxPoint x="1150" y="655" as="targetPoint" />
          </mxGeometry>
        </mxCell>
        <mxCell id="NhWhDlvbDUuo_tMWZjLB-49" value="" style="endArrow=none;html=1;rounded=0;exitX=0.5;exitY=0;exitDx=0;exitDy=0;entryX=0.385;entryY=0.994;entryDx=0;entryDy=0;entryPerimeter=0;labelBackgroundColor=none;fontColor=default;strokeColor=#23445D;" parent="1" source="NhWhDlvbDUuo_tMWZjLB-39" target="NhWhDlvbDUuo_tMWZjLB-3" edge="1">
          <mxGeometry width="50" height="50" relative="1" as="geometry">
            <mxPoint x="1050" y="705" as="sourcePoint" />
            <mxPoint x="1080" y="660" as="targetPoint" />
          </mxGeometry>
        </mxCell>
        <mxCell id="NhWhDlvbDUuo_tMWZjLB-50" value="" style="endArrow=none;html=1;rounded=0;exitX=1;exitY=0.5;exitDx=0;exitDy=0;labelBackgroundColor=none;fontColor=default;strokeColor=#23445D;" parent="1" source="NhWhDlvbDUuo_tMWZjLB-38" edge="1">
          <mxGeometry width="50" height="50" relative="1" as="geometry">
            <mxPoint x="1000" y="675" as="sourcePoint" />
            <mxPoint x="1050" y="625" as="targetPoint" />
          </mxGeometry>
        </mxCell>
        <mxCell id="NhWhDlvbDUuo_tMWZjLB-54" value="" style="endArrow=none;html=1;rounded=0;exitX=1;exitY=1;exitDx=0;exitDy=0;labelBackgroundColor=none;fontColor=default;strokeColor=#23445D;" parent="1" source="NhWhDlvbDUuo_tMWZjLB-37" target="NhWhDlvbDUuo_tMWZjLB-3" edge="1">
          <mxGeometry width="50" height="50" relative="1" as="geometry">
            <mxPoint x="1000" y="655" as="sourcePoint" />
            <mxPoint x="1050" y="605" as="targetPoint" />
          </mxGeometry>
        </mxCell>
        <mxCell id="NhWhDlvbDUuo_tMWZjLB-56" value="" style="endArrow=none;html=1;rounded=0;entryX=0.5;entryY=1;entryDx=0;entryDy=0;exitX=0.5;exitY=0;exitDx=0;exitDy=0;labelBackgroundColor=none;fontColor=default;strokeColor=#23445D;" parent="1" source="NhWhDlvbDUuo_tMWZjLB-3" target="NhWhDlvbDUuo_tMWZjLB-34" edge="1">
          <mxGeometry width="50" height="50" relative="1" as="geometry">
            <mxPoint x="1080" y="595" as="sourcePoint" />
            <mxPoint x="1130" y="545" as="targetPoint" />
          </mxGeometry>
        </mxCell>
        <mxCell id="NhWhDlvbDUuo_tMWZjLB-57" value="" style="endArrow=none;html=1;rounded=0;entryX=0.279;entryY=0.95;entryDx=0;entryDy=0;entryPerimeter=0;labelBackgroundColor=none;fontColor=default;strokeColor=#23445D;" parent="1" target="NhWhDlvbDUuo_tMWZjLB-35" edge="1">
          <mxGeometry width="50" height="50" relative="1" as="geometry">
            <mxPoint x="1160" y="595" as="sourcePoint" />
            <mxPoint x="1190" y="570" as="targetPoint" />
          </mxGeometry>
        </mxCell>
        <mxCell id="NhWhDlvbDUuo_tMWZjLB-58" value="" style="endArrow=none;html=1;rounded=0;exitX=0.75;exitY=0;exitDx=0;exitDy=0;labelBackgroundColor=none;fontColor=default;strokeColor=#23445D;" parent="1" source="NhWhDlvbDUuo_tMWZjLB-3" edge="1">
          <mxGeometry width="50" height="50" relative="1" as="geometry">
            <mxPoint x="770" y="795" as="sourcePoint" />
            <mxPoint x="1126" y="515" as="targetPoint" />
          </mxGeometry>
        </mxCell>
        <mxCell id="NhWhDlvbDUuo_tMWZjLB-59" value="" style="endArrow=none;html=1;rounded=0;entryX=0.5;entryY=1;entryDx=0;entryDy=0;exitX=1;exitY=0.25;exitDx=0;exitDy=0;labelBackgroundColor=none;fontColor=default;strokeColor=#23445D;" parent="1" source="NhWhDlvbDUuo_tMWZjLB-3" target="NhWhDlvbDUuo_tMWZjLB-44" edge="1">
          <mxGeometry width="50" height="50" relative="1" as="geometry">
            <mxPoint x="780" y="805" as="sourcePoint" />
            <mxPoint x="830" y="755" as="targetPoint" />
            <Array as="points">
              <mxPoint x="1240" y="555" />
            </Array>
          </mxGeometry>
        </mxCell>
        <mxCell id="NhWhDlvbDUuo_tMWZjLB-60" value="" style="endArrow=none;html=1;rounded=0;entryX=0.22;entryY=0.917;entryDx=0;entryDy=0;entryPerimeter=0;exitX=0.992;exitY=0.417;exitDx=0;exitDy=0;labelBackgroundColor=none;fontColor=default;exitPerimeter=0;strokeColor=#23445D;" parent="1" source="NhWhDlvbDUuo_tMWZjLB-3" target="NhWhDlvbDUuo_tMWZjLB-42" edge="1">
          <mxGeometry width="50" height="50" relative="1" as="geometry">
            <mxPoint x="790" y="815" as="sourcePoint" />
            <mxPoint x="840" y="765" as="targetPoint" />
          </mxGeometry>
        </mxCell>
        <mxCell id="NhWhDlvbDUuo_tMWZjLB-61" value="" style="endArrow=none;html=1;rounded=0;exitX=1;exitY=0.617;exitDx=0;exitDy=0;exitPerimeter=0;labelBackgroundColor=none;fontColor=default;entryX=0.044;entryY=0.64;entryDx=0;entryDy=0;entryPerimeter=0;strokeColor=#23445D;" parent="1" source="NhWhDlvbDUuo_tMWZjLB-3" edge="1" target="NhWhDlvbDUuo_tMWZjLB-45">
          <mxGeometry width="50" height="50" relative="1" as="geometry">
            <mxPoint x="1180" y="625" as="sourcePoint" />
            <mxPoint x="1270" y="604" as="targetPoint" />
          </mxGeometry>
        </mxCell>
        <mxCell id="NhWhDlvbDUuo_tMWZjLB-62" value="" style="endArrow=none;html=1;rounded=0;entryX=0;entryY=0.5;entryDx=0;entryDy=0;exitX=0.992;exitY=0.85;exitDx=0;exitDy=0;exitPerimeter=0;labelBackgroundColor=none;fontColor=default;strokeColor=#23445D;" parent="1" source="NhWhDlvbDUuo_tMWZjLB-3" target="NhWhDlvbDUuo_tMWZjLB-43" edge="1">
          <mxGeometry width="50" height="50" relative="1" as="geometry">
            <mxPoint x="810" y="835" as="sourcePoint" />
            <mxPoint x="860" y="785" as="targetPoint" />
          </mxGeometry>
        </mxCell>
        <mxCell id="NhWhDlvbDUuo_tMWZjLB-63" value="" style="endArrow=none;html=1;rounded=0;entryX=0;entryY=0.5;entryDx=0;entryDy=0;exitX=1;exitY=0.75;exitDx=0;exitDy=0;labelBackgroundColor=none;fontColor=default;strokeColor=#23445D;" parent="1" source="NhWhDlvbDUuo_tMWZjLB-3" target="NhWhDlvbDUuo_tMWZjLB-41" edge="1">
          <mxGeometry width="50" height="50" relative="1" as="geometry">
            <mxPoint x="820" y="845" as="sourcePoint" />
            <mxPoint x="870" y="795" as="targetPoint" />
          </mxGeometry>
        </mxCell>
        <mxCell id="NhWhDlvbDUuo_tMWZjLB-65" value="Descripcion" style="ellipse;whiteSpace=wrap;html=1;labelBackgroundColor=none;fillColor=#182E3E;strokeColor=#FFFFFF;fontColor=#FFFFFF;" parent="1" vertex="1">
          <mxGeometry x="1134" y="724" width="80" height="45" as="geometry" />
        </mxCell>
        <mxCell id="NhWhDlvbDUuo_tMWZjLB-66" value="" style="endArrow=none;html=1;rounded=0;exitX=0.384;exitY=0.014;exitDx=0;exitDy=0;labelBackgroundColor=none;fontColor=default;entryX=0.801;entryY=0.996;entryDx=0;entryDy=0;entryPerimeter=0;exitPerimeter=0;strokeColor=#23445D;" parent="1" source="NhWhDlvbDUuo_tMWZjLB-65" target="NhWhDlvbDUuo_tMWZjLB-3" edge="1">
          <mxGeometry width="50" height="50" relative="1" as="geometry">
            <mxPoint x="1199" y="728.68" as="sourcePoint" />
            <mxPoint x="1123" y="676.0039436619717" as="targetPoint" />
            <Array as="points" />
          </mxGeometry>
        </mxCell>
        <mxCell id="NhWhDlvbDUuo_tMWZjLB-67" value="Nombre" style="ellipse;whiteSpace=wrap;html=1;labelBackgroundColor=none;fillColor=#182E3E;strokeColor=#FFFFFF;fontColor=#FFFFFF;" parent="1" vertex="1">
          <mxGeometry x="1010" y="220" width="90" height="50" as="geometry" />
        </mxCell>
        <mxCell id="NhWhDlvbDUuo_tMWZjLB-68" value="Descripcion" style="ellipse;whiteSpace=wrap;html=1;labelBackgroundColor=none;fillColor=#182E3E;strokeColor=#FFFFFF;fontColor=#FFFFFF;" parent="1" vertex="1">
          <mxGeometry x="1120" y="240" width="90" height="60" as="geometry" />
        </mxCell>
        <mxCell id="NhWhDlvbDUuo_tMWZjLB-69" value="Tipo" style="ellipse;whiteSpace=wrap;html=1;labelBackgroundColor=none;fillColor=#182E3E;strokeColor=#FFFFFF;fontColor=#FFFFFF;" parent="1" vertex="1">
          <mxGeometry x="1160" y="310" width="110" height="50" as="geometry" />
        </mxCell>
        <mxCell id="NhWhDlvbDUuo_tMWZjLB-70" value="" style="endArrow=none;html=1;rounded=0;entryX=0.064;entryY=0.76;entryDx=0;entryDy=0;entryPerimeter=0;exitX=1;exitY=0.5;exitDx=0;exitDy=0;labelBackgroundColor=none;fontColor=default;strokeColor=#23445D;" parent="1" source="NhWhDlvbDUuo_tMWZjLB-7" target="NhWhDlvbDUuo_tMWZjLB-69" edge="1">
          <mxGeometry width="50" height="50" relative="1" as="geometry">
            <mxPoint x="700" y="650" as="sourcePoint" />
            <mxPoint x="750" y="600" as="targetPoint" />
          </mxGeometry>
        </mxCell>
        <mxCell id="NhWhDlvbDUuo_tMWZjLB-71" value="" style="endArrow=none;html=1;rounded=0;entryX=0;entryY=1;entryDx=0;entryDy=0;labelBackgroundColor=none;fontColor=default;strokeColor=#23445D;" parent="1" target="NhWhDlvbDUuo_tMWZjLB-68" edge="1">
          <mxGeometry width="50" height="50" relative="1" as="geometry">
            <mxPoint x="1110" y="310" as="sourcePoint" />
            <mxPoint x="760" y="610" as="targetPoint" />
          </mxGeometry>
        </mxCell>
        <mxCell id="NhWhDlvbDUuo_tMWZjLB-72" value="" style="endArrow=none;html=1;rounded=0;entryX=0.394;entryY=0.997;entryDx=0;entryDy=0;entryPerimeter=0;exitX=0.5;exitY=0;exitDx=0;exitDy=0;labelBackgroundColor=none;fontColor=default;strokeColor=#23445D;" parent="1" source="NhWhDlvbDUuo_tMWZjLB-7" target="NhWhDlvbDUuo_tMWZjLB-67" edge="1">
          <mxGeometry width="50" height="50" relative="1" as="geometry">
            <mxPoint x="720" y="670" as="sourcePoint" />
            <mxPoint x="770" y="620" as="targetPoint" />
          </mxGeometry>
        </mxCell>
        <mxCell id="NhWhDlvbDUuo_tMWZjLB-73" value="Contenido" style="ellipse;whiteSpace=wrap;html=1;labelBackgroundColor=none;fillColor=#182E3E;strokeColor=#FFFFFF;fontColor=#FFFFFF;" parent="1" vertex="1">
          <mxGeometry x="270" y="490" width="90" height="40" as="geometry" />
        </mxCell>
        <mxCell id="NhWhDlvbDUuo_tMWZjLB-74" value="Contenido" style="ellipse;whiteSpace=wrap;html=1;labelBackgroundColor=none;fillColor=#182E3E;strokeColor=#FFFFFF;fontColor=#FFFFFF;" parent="1" vertex="1">
          <mxGeometry x="635" y="675" width="90" height="50" as="geometry" />
        </mxCell>
        <mxCell id="NhWhDlvbDUuo_tMWZjLB-75" value="Fecha" style="ellipse;whiteSpace=wrap;html=1;labelBackgroundColor=none;fillColor=#182E3E;strokeColor=#FFFFFF;fontColor=#FFFFFF;" parent="1" vertex="1">
          <mxGeometry x="350" y="450" width="100" height="40" as="geometry" />
        </mxCell>
        <mxCell id="NhWhDlvbDUuo_tMWZjLB-76" value="Fecha" style="ellipse;whiteSpace=wrap;html=1;labelBackgroundColor=none;fillColor=#182E3E;strokeColor=#FFFFFF;fontColor=#FFFFFF;" parent="1" vertex="1">
          <mxGeometry x="730" y="680" width="100" height="40" as="geometry" />
        </mxCell>
        <mxCell id="NhWhDlvbDUuo_tMWZjLB-77" value="" style="endArrow=none;html=1;rounded=0;entryX=0.5;entryY=1;entryDx=0;entryDy=0;exitX=1;exitY=0.5;exitDx=0;exitDy=0;labelBackgroundColor=none;fontColor=default;strokeColor=#23445D;" parent="1" source="NhWhDlvbDUuo_tMWZjLB-5" target="NhWhDlvbDUuo_tMWZjLB-76" edge="1">
          <mxGeometry width="50" height="50" relative="1" as="geometry">
            <mxPoint x="830" y="922.5" as="sourcePoint" />
            <mxPoint x="880" y="872.5" as="targetPoint" />
          </mxGeometry>
        </mxCell>
        <mxCell id="NhWhDlvbDUuo_tMWZjLB-78" value="" style="endArrow=none;html=1;rounded=0;entryX=0.5;entryY=1;entryDx=0;entryDy=0;exitX=0.5;exitY=0;exitDx=0;exitDy=0;labelBackgroundColor=none;fontColor=default;strokeColor=#23445D;" parent="1" source="NhWhDlvbDUuo_tMWZjLB-5" target="NhWhDlvbDUuo_tMWZjLB-74" edge="1">
          <mxGeometry width="50" height="50" relative="1" as="geometry">
            <mxPoint x="840" y="932.5" as="sourcePoint" />
            <mxPoint x="890" y="882.5" as="targetPoint" />
          </mxGeometry>
        </mxCell>
        <mxCell id="NhWhDlvbDUuo_tMWZjLB-79" value="" style="endArrow=none;html=1;rounded=0;labelBackgroundColor=none;fontColor=default;strokeColor=#23445D;" parent="1" source="NhWhDlvbDUuo_tMWZjLB-4" target="NhWhDlvbDUuo_tMWZjLB-75" edge="1">
          <mxGeometry width="50" height="50" relative="1" as="geometry">
            <mxPoint x="815" y="705" as="sourcePoint" />
            <mxPoint x="865" y="655" as="targetPoint" />
            <Array as="points" />
          </mxGeometry>
        </mxCell>
        <mxCell id="NhWhDlvbDUuo_tMWZjLB-80" value="" style="endArrow=none;html=1;rounded=0;entryX=0.863;entryY=0.82;entryDx=0;entryDy=0;entryPerimeter=0;exitX=0.25;exitY=0;exitDx=0;exitDy=0;labelBackgroundColor=none;fontColor=default;strokeColor=#23445D;" parent="1" source="NhWhDlvbDUuo_tMWZjLB-4" target="NhWhDlvbDUuo_tMWZjLB-73" edge="1">
          <mxGeometry width="50" height="50" relative="1" as="geometry">
            <mxPoint x="825" y="715" as="sourcePoint" />
            <mxPoint x="875" y="665" as="targetPoint" />
          </mxGeometry>
        </mxCell>
        <mxCell id="NhWhDlvbDUuo_tMWZjLB-81" value="" style="endArrow=none;html=1;rounded=0;exitX=0.5;exitY=0;exitDx=0;exitDy=0;labelBackgroundColor=none;fontColor=default;strokeColor=#23445D;" parent="1" source="NhWhDlvbDUuo_tMWZjLB-6" target="NhWhDlvbDUuo_tMWZjLB-82" edge="1">
          <mxGeometry width="50" height="50" relative="1" as="geometry">
            <mxPoint x="720" y="890" as="sourcePoint" />
            <mxPoint x="770" y="840" as="targetPoint" />
          </mxGeometry>
        </mxCell>
        <mxCell id="NhWhDlvbDUuo_tMWZjLB-82" value="Puntuacion" style="ellipse;whiteSpace=wrap;html=1;labelBackgroundColor=none;fillColor=#182E3E;strokeColor=#FFFFFF;fontColor=#FFFFFF;" parent="1" vertex="1">
          <mxGeometry x="330" y="810" width="90" height="50" as="geometry" />
        </mxCell>
        <mxCell id="NhWhDlvbDUuo_tMWZjLB-83" value="&lt;u&gt;Id_imagen&lt;/u&gt;" style="ellipse;whiteSpace=wrap;html=1;labelBackgroundColor=none;fillColor=#182E3E;strokeColor=#FFFFFF;fontColor=#FFFFFF;" parent="1" vertex="1">
          <mxGeometry x="1250" y="840" width="120" height="50" as="geometry" />
        </mxCell>
        <mxCell id="NhWhDlvbDUuo_tMWZjLB-84" value="" style="endArrow=none;html=1;rounded=0;exitX=1;exitY=0.5;exitDx=0;exitDy=0;entryX=0.5;entryY=1;entryDx=0;entryDy=0;labelBackgroundColor=none;fontColor=default;strokeColor=#23445D;" parent="1" source="NhWhDlvbDUuo_tMWZjLB-40" target="NhWhDlvbDUuo_tMWZjLB-83" edge="1">
          <mxGeometry width="50" height="50" relative="1" as="geometry">
            <mxPoint x="680" y="750" as="sourcePoint" />
            <mxPoint x="730" y="700" as="targetPoint" />
          </mxGeometry>
        </mxCell>
        <mxCell id="NhWhDlvbDUuo_tMWZjLB-85" value="oferta" style="rhombus;whiteSpace=wrap;html=1;labelBackgroundColor=none;fillColor=#182E3E;strokeColor=#FFFFFF;fontColor=#FFFFFF;" parent="1" vertex="1">
          <mxGeometry x="970" y="410" width="80" height="80" as="geometry" />
        </mxCell>
        <mxCell id="NhWhDlvbDUuo_tMWZjLB-86" value="" style="endArrow=none;html=1;rounded=0;entryX=0.5;entryY=1;entryDx=0;entryDy=0;exitX=0.332;exitY=-0.002;exitDx=0;exitDy=0;exitPerimeter=0;labelBackgroundColor=none;fontColor=default;strokeColor=#23445D;" parent="1" source="NhWhDlvbDUuo_tMWZjLB-3" target="NhWhDlvbDUuo_tMWZjLB-85" edge="1">
          <mxGeometry width="50" height="50" relative="1" as="geometry">
            <mxPoint x="1060" y="590" as="sourcePoint" />
            <mxPoint x="740" y="600" as="targetPoint" />
            <Array as="points" />
          </mxGeometry>
        </mxCell>
        <mxCell id="NhWhDlvbDUuo_tMWZjLB-87" value="" style="endArrow=none;html=1;rounded=0;entryX=0.25;entryY=1;entryDx=0;entryDy=0;exitX=0.5;exitY=0;exitDx=0;exitDy=0;labelBackgroundColor=none;fontColor=default;strokeColor=#23445D;" parent="1" source="NhWhDlvbDUuo_tMWZjLB-85" target="NhWhDlvbDUuo_tMWZjLB-7" edge="1">
          <mxGeometry width="50" height="50" relative="1" as="geometry">
            <mxPoint x="690" y="650" as="sourcePoint" />
            <mxPoint x="740" y="600" as="targetPoint" />
            <Array as="points">
              <mxPoint x="1010" y="410" />
            </Array>
          </mxGeometry>
        </mxCell>
        <mxCell id="NhWhDlvbDUuo_tMWZjLB-88" value="" style="endArrow=none;html=1;rounded=0;entryX=0.75;entryY=1;entryDx=0;entryDy=0;exitX=0.5;exitY=0;exitDx=0;exitDy=0;labelBackgroundColor=none;fontColor=default;strokeColor=#23445D;" parent="1" source="NhWhDlvbDUuo_tMWZjLB-89" target="NhWhDlvbDUuo_tMWZjLB-3" edge="1">
          <mxGeometry width="50" height="50" relative="1" as="geometry">
            <mxPoint x="1080" y="760" as="sourcePoint" />
            <mxPoint x="740" y="600" as="targetPoint" />
          </mxGeometry>
        </mxCell>
        <mxCell id="NhWhDlvbDUuo_tMWZjLB-89" value="comparte" style="rhombus;whiteSpace=wrap;html=1;labelBackgroundColor=none;rotation=-5;fillColor=#182E3E;strokeColor=#FFFFFF;fontColor=#FFFFFF;" parent="1" vertex="1">
          <mxGeometry x="1078" y="773" width="80" height="80" as="geometry" />
        </mxCell>
        <mxCell id="NhWhDlvbDUuo_tMWZjLB-90" value="" style="endArrow=none;html=1;rounded=0;entryX=0.5;entryY=1;entryDx=0;entryDy=0;exitX=0.197;exitY=0.002;exitDx=0;exitDy=0;exitPerimeter=0;labelBackgroundColor=none;fontColor=default;strokeColor=#23445D;" parent="1" source="NhWhDlvbDUuo_tMWZjLB-40" target="NhWhDlvbDUuo_tMWZjLB-89" edge="1">
          <mxGeometry width="50" height="50" relative="1" as="geometry">
            <mxPoint x="690" y="650" as="sourcePoint" />
            <mxPoint x="740" y="600" as="targetPoint" />
          </mxGeometry>
        </mxCell>
        <mxCell id="NhWhDlvbDUuo_tMWZjLB-91" value="" style="endArrow=none;html=1;rounded=0;entryX=0.5;entryY=1;entryDx=0;entryDy=0;exitX=1;exitY=0.25;exitDx=0;exitDy=0;labelBackgroundColor=none;fontColor=default;strokeColor=#23445D;" parent="1" source="NhWhDlvbDUuo_tMWZjLB-2" target="NhWhDlvbDUuo_tMWZjLB-31" edge="1">
          <mxGeometry width="50" height="50" relative="1" as="geometry">
            <mxPoint x="730" y="505" as="sourcePoint" />
            <mxPoint x="780" y="455" as="targetPoint" />
          </mxGeometry>
        </mxCell>
        <mxCell id="NhWhDlvbDUuo_tMWZjLB-92" value="" style="endArrow=none;html=1;rounded=0;labelBackgroundColor=none;fontColor=default;entryX=0.585;entryY=0.999;entryDx=0;entryDy=0;entryPerimeter=0;strokeColor=#23445D;" parent="1" source="NhWhDlvbDUuo_tMWZjLB-2" target="NhWhDlvbDUuo_tMWZjLB-30" edge="1">
          <mxGeometry width="50" height="50" relative="1" as="geometry">
            <mxPoint x="740" y="515" as="sourcePoint" />
            <mxPoint x="662" y="280" as="targetPoint" />
          </mxGeometry>
        </mxCell>
        <mxCell id="NhWhDlvbDUuo_tMWZjLB-93" value="" style="endArrow=none;html=1;rounded=0;entryX=0.638;entryY=0.975;entryDx=0;entryDy=0;entryPerimeter=0;exitX=0.25;exitY=0;exitDx=0;exitDy=0;labelBackgroundColor=none;fontColor=default;strokeColor=#23445D;" parent="1" source="NhWhDlvbDUuo_tMWZjLB-2" target="NhWhDlvbDUuo_tMWZjLB-29" edge="1">
          <mxGeometry width="50" height="50" relative="1" as="geometry">
            <mxPoint x="750" y="525" as="sourcePoint" />
            <mxPoint x="800" y="475" as="targetPoint" />
          </mxGeometry>
        </mxCell>
        <mxCell id="NhWhDlvbDUuo_tMWZjLB-94" value="pertenece" style="rhombus;whiteSpace=wrap;html=1;labelBackgroundColor=none;fillColor=#182E3E;strokeColor=#FFFFFF;fontColor=#FFFFFF;" parent="1" vertex="1">
          <mxGeometry x="280" y="310" width="80" height="80" as="geometry" />
        </mxCell>
        <mxCell id="NhWhDlvbDUuo_tMWZjLB-95" value="" style="endArrow=none;html=1;rounded=0;entryX=1;entryY=0.5;entryDx=0;entryDy=0;exitX=0;exitY=0.5;exitDx=0;exitDy=0;labelBackgroundColor=none;fontColor=default;strokeColor=#23445D;" parent="1" source="NhWhDlvbDUuo_tMWZjLB-2" target="NhWhDlvbDUuo_tMWZjLB-94" edge="1">
          <mxGeometry width="50" height="50" relative="1" as="geometry">
            <mxPoint x="520" y="380" as="sourcePoint" />
            <mxPoint x="770" y="630" as="targetPoint" />
          </mxGeometry>
        </mxCell>
        <mxCell id="NhWhDlvbDUuo_tMWZjLB-96" value="" style="endArrow=none;html=1;rounded=0;entryX=1;entryY=0.5;entryDx=0;entryDy=0;exitX=0;exitY=0.5;exitDx=0;exitDy=0;labelBackgroundColor=none;fontColor=default;strokeColor=#23445D;" parent="1" source="NhWhDlvbDUuo_tMWZjLB-94" target="NhWhDlvbDUuo_tMWZjLB-1" edge="1">
          <mxGeometry width="50" height="50" relative="1" as="geometry">
            <mxPoint x="730" y="690" as="sourcePoint" />
            <mxPoint x="780" y="640" as="targetPoint" />
          </mxGeometry>
        </mxCell>
        <mxCell id="NhWhDlvbDUuo_tMWZjLB-97" value="sobre" style="rhombus;whiteSpace=wrap;html=1;labelBackgroundColor=none;fillColor=#182E3E;strokeColor=#FFFFFF;fontColor=#FFFFFF;" parent="1" vertex="1">
          <mxGeometry x="594" y="590" width="80" height="80" as="geometry" />
        </mxCell>
        <mxCell id="NhWhDlvbDUuo_tMWZjLB-98" value="hace" style="rhombus;whiteSpace=wrap;html=1;direction=south;rotation=0;labelBackgroundColor=none;fillColor=#182E3E;strokeColor=#FFFFFF;fontColor=#FFFFFF;" parent="1" vertex="1">
          <mxGeometry x="490" y="440" width="100" height="80" as="geometry" />
        </mxCell>
        <mxCell id="NhWhDlvbDUuo_tMWZjLB-101" value="" style="endArrow=none;html=1;rounded=0;entryX=-0.007;entryY=0.394;entryDx=0;entryDy=0;exitX=1;exitY=0.5;exitDx=0;exitDy=0;entryPerimeter=0;labelBackgroundColor=none;fontColor=default;strokeColor=#23445D;" parent="1" source="NhWhDlvbDUuo_tMWZjLB-97" target="NhWhDlvbDUuo_tMWZjLB-3" edge="1">
          <mxGeometry width="50" height="50" relative="1" as="geometry">
            <mxPoint x="750" y="710" as="sourcePoint" />
            <mxPoint x="800" y="660" as="targetPoint" />
            <Array as="points">
              <mxPoint x="869" y="691" />
            </Array>
          </mxGeometry>
        </mxCell>
        <mxCell id="NhWhDlvbDUuo_tMWZjLB-102" value="" style="endArrow=none;html=1;rounded=0;entryX=1;entryY=0.75;entryDx=0;entryDy=0;exitX=0;exitY=0.5;exitDx=0;exitDy=0;labelBackgroundColor=none;fontColor=default;strokeColor=#23445D;" parent="1" source="NhWhDlvbDUuo_tMWZjLB-97" target="NhWhDlvbDUuo_tMWZjLB-4" edge="1">
          <mxGeometry width="50" height="50" relative="1" as="geometry">
            <mxPoint x="760" y="720" as="sourcePoint" />
            <mxPoint x="810" y="670" as="targetPoint" />
          </mxGeometry>
        </mxCell>
        <mxCell id="NhWhDlvbDUuo_tMWZjLB-104" value="realiza" style="rhombus;whiteSpace=wrap;html=1;labelBackgroundColor=none;fillColor=#182E3E;strokeColor=#FFFFFF;fontColor=#FFFFFF;" parent="1" vertex="1">
          <mxGeometry x="70" y="570" width="80" height="80" as="geometry" />
        </mxCell>
        <mxCell id="NhWhDlvbDUuo_tMWZjLB-105" value="" style="endArrow=none;html=1;rounded=0;exitX=0.5;exitY=0;exitDx=0;exitDy=0;labelBackgroundColor=none;fontColor=default;strokeColor=#23445D;" parent="1" source="NhWhDlvbDUuo_tMWZjLB-104" edge="1">
          <mxGeometry width="50" height="50" relative="1" as="geometry">
            <mxPoint x="480" y="440" as="sourcePoint" />
            <mxPoint x="530" y="390" as="targetPoint" />
            <Array as="points">
              <mxPoint x="300" y="470" />
            </Array>
          </mxGeometry>
        </mxCell>
        <mxCell id="NhWhDlvbDUuo_tMWZjLB-106" value="" style="endArrow=none;html=1;rounded=0;entryX=0.5;entryY=1;entryDx=0;entryDy=0;exitX=0;exitY=0.5;exitDx=0;exitDy=0;labelBackgroundColor=none;fontColor=default;strokeColor=#23445D;" parent="1" source="NhWhDlvbDUuo_tMWZjLB-6" target="NhWhDlvbDUuo_tMWZjLB-104" edge="1">
          <mxGeometry width="50" height="50" relative="1" as="geometry">
            <mxPoint x="690" y="650" as="sourcePoint" />
            <mxPoint x="740" y="600" as="targetPoint" />
            <Array as="points" />
          </mxGeometry>
        </mxCell>
        <mxCell id="NhWhDlvbDUuo_tMWZjLB-107" value="recibe" style="rhombus;whiteSpace=wrap;html=1;labelBackgroundColor=none;fillColor=#182E3E;strokeColor=#FFFFFF;fontColor=#FFFFFF;" parent="1" vertex="1">
          <mxGeometry x="370" y="650" width="80" height="80" as="geometry" />
        </mxCell>
        <mxCell id="NhWhDlvbDUuo_tMWZjLB-108" value="" style="endArrow=none;html=1;rounded=0;entryX=0.583;entryY=1.017;entryDx=0;entryDy=0;entryPerimeter=0;labelBackgroundColor=none;fontColor=default;strokeColor=#23445D;" parent="1" source="NhWhDlvbDUuo_tMWZjLB-107" target="NhWhDlvbDUuo_tMWZjLB-4" edge="1">
          <mxGeometry width="50" height="50" relative="1" as="geometry">
            <mxPoint x="690" y="650" as="sourcePoint" />
            <mxPoint x="740" y="600" as="targetPoint" />
          </mxGeometry>
        </mxCell>
        <mxCell id="NhWhDlvbDUuo_tMWZjLB-109" value="" style="endArrow=none;html=1;rounded=0;entryX=0;entryY=0.75;entryDx=0;entryDy=0;exitX=0.5;exitY=1;exitDx=0;exitDy=0;labelBackgroundColor=none;fontColor=default;strokeColor=#23445D;" parent="1" source="NhWhDlvbDUuo_tMWZjLB-107" target="NhWhDlvbDUuo_tMWZjLB-5" edge="1">
          <mxGeometry width="50" height="50" relative="1" as="geometry">
            <mxPoint x="690" y="650" as="sourcePoint" />
            <mxPoint x="740" y="600" as="targetPoint" />
          </mxGeometry>
        </mxCell>
        <mxCell id="NhWhDlvbDUuo_tMWZjLB-110" value="escribe" style="rhombus;whiteSpace=wrap;html=1;labelBackgroundColor=none;fillColor=#182E3E;strokeColor=#FFFFFF;fontColor=#FFFFFF;" parent="1" vertex="1">
          <mxGeometry x="869" y="759" width="80" height="80" as="geometry" />
        </mxCell>
        <mxCell id="NhWhDlvbDUuo_tMWZjLB-111" value="obtiene" style="rhombus;whiteSpace=wrap;html=1;labelBackgroundColor=none;fillColor=#182E3E;strokeColor=#FFFFFF;fontColor=#FFFFFF;" parent="1" vertex="1">
          <mxGeometry x="828" y="913" width="80" height="80" as="geometry" />
        </mxCell>
        <mxCell id="NhWhDlvbDUuo_tMWZjLB-112" value="" style="endArrow=none;html=1;rounded=0;entryX=0.25;entryY=1;entryDx=0;entryDy=0;exitX=1;exitY=0.5;exitDx=0;exitDy=0;labelBackgroundColor=none;fontColor=default;strokeColor=#23445D;" parent="1" source="NhWhDlvbDUuo_tMWZjLB-111" target="NhWhDlvbDUuo_tMWZjLB-3" edge="1">
          <mxGeometry width="50" height="50" relative="1" as="geometry">
            <mxPoint x="690" y="650" as="sourcePoint" />
            <mxPoint x="740" y="600" as="targetPoint" />
            <Array as="points" />
          </mxGeometry>
        </mxCell>
        <mxCell id="NhWhDlvbDUuo_tMWZjLB-113" value="" style="endArrow=none;html=1;rounded=0;entryX=0;entryY=0.5;entryDx=0;entryDy=0;exitX=1;exitY=0.5;exitDx=0;exitDy=0;labelBackgroundColor=none;fontColor=default;strokeColor=#23445D;" parent="1" source="NhWhDlvbDUuo_tMWZjLB-6" target="NhWhDlvbDUuo_tMWZjLB-111" edge="1">
          <mxGeometry width="50" height="50" relative="1" as="geometry">
            <mxPoint x="690" y="650" as="sourcePoint" />
            <mxPoint x="740" y="600" as="targetPoint" />
          </mxGeometry>
        </mxCell>
        <mxCell id="NhWhDlvbDUuo_tMWZjLB-114" value="Fecha" style="ellipse;whiteSpace=wrap;html=1;labelBackgroundColor=none;fillColor=#182E3E;strokeColor=#FFFFFF;fontColor=#FFFFFF;" parent="1" vertex="1">
          <mxGeometry x="425" y="840" width="100" height="40" as="geometry" />
        </mxCell>
        <mxCell id="NhWhDlvbDUuo_tMWZjLB-115" value="" style="endArrow=none;html=1;rounded=0;entryX=1;entryY=0.25;entryDx=0;entryDy=0;exitX=0.26;exitY=0.9;exitDx=0;exitDy=0;exitPerimeter=0;labelBackgroundColor=none;fontColor=default;strokeColor=#23445D;" parent="1" source="NhWhDlvbDUuo_tMWZjLB-114" target="NhWhDlvbDUuo_tMWZjLB-6" edge="1">
          <mxGeometry width="50" height="50" relative="1" as="geometry">
            <mxPoint x="690" y="650" as="sourcePoint" />
            <mxPoint x="740" y="600" as="targetPoint" />
            <Array as="points" />
          </mxGeometry>
        </mxCell>
        <mxCell id="NhWhDlvbDUuo_tMWZjLB-116" value="" style="endArrow=none;html=1;rounded=0;entryX=0;entryY=0.5;entryDx=0;entryDy=0;labelBackgroundColor=none;fontColor=default;strokeColor=#23445D;" parent="1" target="NhWhDlvbDUuo_tMWZjLB-110" edge="1">
          <mxGeometry width="50" height="50" relative="1" as="geometry">
            <mxPoint x="740" y="800" as="sourcePoint" />
            <mxPoint x="750" y="610" as="targetPoint" />
          </mxGeometry>
        </mxCell>
        <mxCell id="NhWhDlvbDUuo_tMWZjLB-117" value="" style="endArrow=none;html=1;rounded=0;entryX=0;entryY=0.75;entryDx=0;entryDy=0;exitX=1;exitY=0.5;exitDx=0;exitDy=0;labelBackgroundColor=none;fontColor=default;strokeColor=#23445D;" parent="1" source="NhWhDlvbDUuo_tMWZjLB-110" target="NhWhDlvbDUuo_tMWZjLB-3" edge="1">
          <mxGeometry width="50" height="50" relative="1" as="geometry">
            <mxPoint x="710" y="670" as="sourcePoint" />
            <mxPoint x="760" y="620" as="targetPoint" />
          </mxGeometry>
        </mxCell>
        <mxCell id="NhWhDlvbDUuo_tMWZjLB-118" value="Url" style="ellipse;whiteSpace=wrap;html=1;labelBackgroundColor=none;fillColor=#182E3E;strokeColor=#FFFFFF;fontColor=#FFFFFF;" parent="1" vertex="1">
          <mxGeometry x="1160" y="840" width="75" height="40" as="geometry" />
        </mxCell>
        <mxCell id="NhWhDlvbDUuo_tMWZjLB-119" value="Descripcion" style="ellipse;whiteSpace=wrap;html=1;labelBackgroundColor=none;fillColor=#182E3E;strokeColor=#FFFFFF;fontColor=#FFFFFF;" parent="1" vertex="1">
          <mxGeometry x="1250" y="944" width="100" height="50" as="geometry" />
        </mxCell>
        <mxCell id="NhWhDlvbDUuo_tMWZjLB-120" value="" style="endArrow=none;html=1;rounded=0;exitX=0.995;exitY=0.91;exitDx=0;exitDy=0;labelBackgroundColor=none;fontColor=default;exitPerimeter=0;strokeColor=#23445D;" parent="1" source="NhWhDlvbDUuo_tMWZjLB-40" target="NhWhDlvbDUuo_tMWZjLB-119" edge="1">
          <mxGeometry width="50" height="50" relative="1" as="geometry">
            <mxPoint x="1060" y="690" as="sourcePoint" />
            <mxPoint x="1110" y="640" as="targetPoint" />
          </mxGeometry>
        </mxCell>
        <mxCell id="NhWhDlvbDUuo_tMWZjLB-121" value="" style="endArrow=none;html=1;rounded=0;entryX=0.5;entryY=1;entryDx=0;entryDy=0;exitX=0.75;exitY=0;exitDx=0;exitDy=0;labelBackgroundColor=none;fontColor=default;strokeColor=#23445D;" parent="1" source="NhWhDlvbDUuo_tMWZjLB-40" target="NhWhDlvbDUuo_tMWZjLB-118" edge="1">
          <mxGeometry width="50" height="50" relative="1" as="geometry">
            <mxPoint x="1060" y="690" as="sourcePoint" />
            <mxPoint x="1110" y="640" as="targetPoint" />
          </mxGeometry>
        </mxCell>
        <mxCell id="NhWhDlvbDUuo_tMWZjLB-123" value="(1,n)" style="text;html=1;align=center;verticalAlign=middle;whiteSpace=wrap;rounded=0;labelBackgroundColor=none;fontColor=#FFFFFF;" parent="1" vertex="1">
          <mxGeometry x="1010" y="370" width="60" height="30" as="geometry" />
        </mxCell>
        <mxCell id="NhWhDlvbDUuo_tMWZjLB-124" value="(1,n)" style="text;html=1;align=center;verticalAlign=middle;whiteSpace=wrap;rounded=0;labelBackgroundColor=none;fontColor=#FFFFFF;" parent="1" vertex="1">
          <mxGeometry x="890" y="460" width="60" height="30" as="geometry" />
        </mxCell>
        <mxCell id="NhWhDlvbDUuo_tMWZjLB-125" value="(0,n)" style="text;html=1;align=center;verticalAlign=middle;resizable=0;points=[];autosize=1;strokeColor=none;fillColor=none;labelBackgroundColor=none;fontColor=#FFFFFF;" parent="1" vertex="1">
          <mxGeometry x="1074" y="894" width="50" height="30" as="geometry" />
        </mxCell>
        <mxCell id="NhWhDlvbDUuo_tMWZjLB-127" value="(1,1)" style="text;html=1;align=center;verticalAlign=middle;resizable=0;points=[];autosize=1;strokeColor=none;fillColor=none;labelBackgroundColor=none;fontColor=#FFFFFF;" parent="1" vertex="1">
          <mxGeometry x="1094" y="650" width="50" height="30" as="geometry" />
        </mxCell>
        <mxCell id="NhWhDlvbDUuo_tMWZjLB-130" value="(0,n)" style="text;html=1;align=center;verticalAlign=middle;whiteSpace=wrap;rounded=0;labelBackgroundColor=none;fontColor=#FFFFFF;" parent="1" vertex="1">
          <mxGeometry x="396" y="913" width="60" height="30" as="geometry" />
        </mxCell>
        <mxCell id="NhWhDlvbDUuo_tMWZjLB-131" value="(1,1)" style="text;html=1;align=center;verticalAlign=middle;resizable=0;points=[];autosize=1;strokeColor=none;fillColor=none;labelBackgroundColor=none;fontColor=#FFFFFF;" parent="1" vertex="1">
          <mxGeometry x="1027" y="648" width="50" height="30" as="geometry" />
        </mxCell>
        <mxCell id="NhWhDlvbDUuo_tMWZjLB-132" value="(0,n)" style="text;html=1;align=center;verticalAlign=middle;resizable=0;points=[];autosize=1;strokeColor=none;fillColor=none;labelBackgroundColor=none;fontColor=#FFFFFF;" parent="1" vertex="1">
          <mxGeometry x="440" y="550" width="50" height="30" as="geometry" />
        </mxCell>
        <mxCell id="NhWhDlvbDUuo_tMWZjLB-133" value="(1,1)" style="text;html=1;align=center;verticalAlign=middle;resizable=0;points=[];autosize=1;strokeColor=none;fillColor=none;labelBackgroundColor=none;fontColor=#FFFFFF;" parent="1" vertex="1">
          <mxGeometry x="400" y="590" width="50" height="30" as="geometry" />
        </mxCell>
        <mxCell id="NhWhDlvbDUuo_tMWZjLB-134" value="(0,1)" style="text;html=1;align=center;verticalAlign=middle;whiteSpace=wrap;rounded=0;labelBackgroundColor=none;fontColor=#FFFFFF;" parent="1" vertex="1">
          <mxGeometry x="580" y="770" width="40" height="30" as="geometry" />
        </mxCell>
        <mxCell id="NhWhDlvbDUuo_tMWZjLB-135" value="(1,1)" style="text;html=1;align=center;verticalAlign=middle;whiteSpace=wrap;rounded=0;labelBackgroundColor=none;fontColor=#FFFFFF;" parent="1" vertex="1">
          <mxGeometry x="973" y="610" width="60" height="30" as="geometry" />
        </mxCell>
        <mxCell id="NhWhDlvbDUuo_tMWZjLB-139" value="" style="endArrow=none;html=1;rounded=0;exitX=0.5;exitY=0;exitDx=0;exitDy=0;labelBackgroundColor=none;fontColor=default;entryX=0.775;entryY=1.075;entryDx=0;entryDy=0;entryPerimeter=0;strokeColor=#23445D;" parent="1" source="NhWhDlvbDUuo_tMWZjLB-98" target="NhWhDlvbDUuo_tMWZjLB-2" edge="1">
          <mxGeometry width="50" height="50" relative="1" as="geometry">
            <mxPoint x="260" y="530" as="sourcePoint" />
            <mxPoint x="641" y="399" as="targetPoint" />
          </mxGeometry>
        </mxCell>
        <mxCell id="NhWhDlvbDUuo_tMWZjLB-140" value="" style="endArrow=none;html=1;rounded=0;entryX=0.5;entryY=1;entryDx=0;entryDy=0;exitX=0.861;exitY=0.019;exitDx=0;exitDy=0;exitPerimeter=0;labelBackgroundColor=none;fontColor=default;strokeColor=#23445D;" parent="1" source="NhWhDlvbDUuo_tMWZjLB-4" target="NhWhDlvbDUuo_tMWZjLB-98" edge="1">
          <mxGeometry width="50" height="50" relative="1" as="geometry">
            <mxPoint x="440" y="530" as="sourcePoint" />
            <mxPoint x="310" y="480" as="targetPoint" />
          </mxGeometry>
        </mxCell>
        <mxCell id="NhWhDlvbDUuo_tMWZjLB-141" value="(1,1)" style="text;html=1;align=center;verticalAlign=middle;whiteSpace=wrap;rounded=0;labelBackgroundColor=none;fontColor=#FFFFFF;" parent="1" vertex="1">
          <mxGeometry x="647" y="394" width="60" height="30" as="geometry" />
        </mxCell>
        <mxCell id="NhWhDlvbDUuo_tMWZjLB-142" value="(0,n)" style="text;html=1;align=center;verticalAlign=middle;whiteSpace=wrap;rounded=0;labelBackgroundColor=none;fontColor=#FFFFFF;" parent="1" vertex="1">
          <mxGeometry x="390" y="510" width="60" height="30" as="geometry" />
        </mxCell>
        <mxCell id="NhWhDlvbDUuo_tMWZjLB-143" value="(0,n)" style="text;html=1;align=center;verticalAlign=middle;whiteSpace=wrap;rounded=0;labelBackgroundColor=none;fontColor=#FFFFFF;" parent="1" vertex="1">
          <mxGeometry x="485" y="344" width="60" height="30" as="geometry" />
        </mxCell>
        <mxCell id="NhWhDlvbDUuo_tMWZjLB-144" value="(1,1)" style="text;html=1;align=center;verticalAlign=middle;whiteSpace=wrap;rounded=0;labelBackgroundColor=none;fontColor=#FFFFFF;" parent="1" vertex="1">
          <mxGeometry x="205" y="329" width="60" height="30" as="geometry" />
        </mxCell>
        <mxCell id="NhWhDlvbDUuo_tMWZjLB-146" value="(0,n)" style="text;html=1;align=center;verticalAlign=middle;whiteSpace=wrap;rounded=0;labelBackgroundColor=none;fontColor=#FFFFFF;" parent="1" vertex="1">
          <mxGeometry x="243" y="906" width="60" height="30" as="geometry" />
        </mxCell>
        <mxCell id="NhWhDlvbDUuo_tMWZjLB-147" value="(1,1)" style="text;html=1;align=center;verticalAlign=middle;whiteSpace=wrap;rounded=0;labelBackgroundColor=none;fontColor=#FFFFFF;" parent="1" vertex="1">
          <mxGeometry x="486" y="369" width="60" height="30" as="geometry" />
        </mxCell>
        <mxCell id="NhWhDlvbDUuo_tMWZjLB-148" value="(1,n)" style="text;html=1;align=center;verticalAlign=middle;whiteSpace=wrap;rounded=0;labelBackgroundColor=none;fontColor=#FFFFFF;" parent="1" vertex="1">
          <mxGeometry x="1039" y="572" width="60" height="30" as="geometry" />
        </mxCell>
        <mxCell id="KGHcOlxT08KnkAmT7X0y-1" value="&lt;font color=&quot;#ffffff&quot;&gt;(1,n)&lt;/font&gt;" style="text;html=1;align=center;verticalAlign=middle;whiteSpace=wrap;rounded=0;labelBackgroundColor=none;fontColor=#FFFFFF;" parent="1" vertex="1">
          <mxGeometry x="733" y="792" width="60" height="30" as="geometry" />
        </mxCell>
        <mxCell id="KGHcOlxT08KnkAmT7X0y-3" value="tiene" style="rhombus;whiteSpace=wrap;html=1;labelBackgroundColor=none;fillColor=#182E3E;strokeColor=#FFFFFF;fontColor=#FFFFFF;" parent="1" vertex="1">
          <mxGeometry x="711" y="481" width="80" height="80" as="geometry" />
        </mxCell>
        <mxCell id="KGHcOlxT08KnkAmT7X0y-6" value="" style="endArrow=none;html=1;rounded=0;labelBackgroundColor=none;fontColor=default;exitX=0.994;exitY=0.498;exitDx=0;exitDy=0;exitPerimeter=0;strokeColor=#23445D;" parent="1" source="KGHcOlxT08KnkAmT7X0y-3" edge="1">
          <mxGeometry width="50" height="50" relative="1" as="geometry">
            <mxPoint x="778" y="442" as="sourcePoint" />
            <mxPoint x="1048" y="608" as="targetPoint" />
            <Array as="points">
              <mxPoint x="834" y="597" />
            </Array>
          </mxGeometry>
        </mxCell>
        <mxCell id="KGHcOlxT08KnkAmT7X0y-8" value="(0,1)" style="text;html=1;align=center;verticalAlign=middle;whiteSpace=wrap;rounded=0;labelBackgroundColor=none;fontColor=#FFFFFF;" parent="1" vertex="1">
          <mxGeometry x="981" y="584" width="60" height="30" as="geometry" />
        </mxCell>
        <mxCell id="KGHcOlxT08KnkAmT7X0y-9" value="(1,1)" style="text;html=1;align=center;verticalAlign=middle;whiteSpace=wrap;rounded=0;labelBackgroundColor=none;fontColor=#FFFFFF;" parent="1" vertex="1">
          <mxGeometry x="544" y="401" width="60" height="30" as="geometry" />
        </mxCell>
        <mxCell id="KGHcOlxT08KnkAmT7X0y-11" value="Apellidos" style="ellipse;whiteSpace=wrap;html=1;labelBackgroundColor=none;fillColor=#182E3E;strokeColor=#FFFFFF;fontColor=#FFFFFF;" parent="1" vertex="1">
          <mxGeometry x="538" y="260" width="72" height="42" as="geometry" />
        </mxCell>
        <mxCell id="KGHcOlxT08KnkAmT7X0y-12" value="" style="endArrow=none;html=1;rounded=0;fontColor=default;entryX=0.608;entryY=0.973;entryDx=0;entryDy=0;entryPerimeter=0;labelBackgroundColor=none;strokeColor=#23445D;" parent="1" source="NhWhDlvbDUuo_tMWZjLB-2" target="KGHcOlxT08KnkAmT7X0y-11" edge="1">
          <mxGeometry width="50" height="50" relative="1" as="geometry">
            <mxPoint x="760" y="522" as="sourcePoint" />
            <mxPoint x="810" y="472" as="targetPoint" />
          </mxGeometry>
        </mxCell>
        <mxCell id="KGHcOlxT08KnkAmT7X0y-13" value="" style="endArrow=none;html=1;rounded=0;fontColor=default;entryX=0.991;entryY=0.937;entryDx=0;entryDy=0;entryPerimeter=0;exitX=0;exitY=0.5;exitDx=0;exitDy=0;exitPerimeter=0;labelBackgroundColor=none;strokeColor=#23445D;" parent="1" source="KGHcOlxT08KnkAmT7X0y-3" target="NhWhDlvbDUuo_tMWZjLB-2" edge="1">
          <mxGeometry width="50" height="50" relative="1" as="geometry">
            <mxPoint x="632" y="477" as="sourcePoint" />
            <mxPoint x="682" y="427" as="targetPoint" />
          </mxGeometry>
        </mxCell>
        <mxCell id="R8vFkyPxmufn6Cymb-W6-2" value="Desactivaciones" style="ellipse;whiteSpace=wrap;html=1;labelBackgroundColor=none;fillColor=#182E3E;strokeColor=#FFFFFF;fontColor=#FFFFFF;" vertex="1" parent="1">
          <mxGeometry x="702" y="333" width="101" height="40" as="geometry" />
        </mxCell>
        <mxCell id="R8vFkyPxmufn6Cymb-W6-3" value="Activo" style="ellipse;whiteSpace=wrap;html=1;labelBackgroundColor=none;fillColor=#182E3E;strokeColor=#FFFFFF;fontColor=#FFFFFF;" vertex="1" parent="1">
          <mxGeometry x="716" y="286" width="80" height="40" as="geometry" />
        </mxCell>
        <mxCell id="R8vFkyPxmufn6Cymb-W6-5" value="" style="endArrow=none;html=1;rounded=0;fontColor=default;labelBackgroundColor=none;entryX=0.991;entryY=0.741;entryDx=0;entryDy=0;entryPerimeter=0;strokeColor=#23445D;" edge="1" parent="1" source="R8vFkyPxmufn6Cymb-W6-2" target="NhWhDlvbDUuo_tMWZjLB-2">
          <mxGeometry width="50" height="50" relative="1" as="geometry">
            <mxPoint x="721" y="531" as="sourcePoint" />
            <mxPoint x="672" y="408" as="targetPoint" />
          </mxGeometry>
        </mxCell>
        <mxCell id="R8vFkyPxmufn6Cymb-W6-7" value="" style="endArrow=none;html=1;rounded=0;fontColor=default;entryX=0.025;entryY=0.675;entryDx=0;entryDy=0;entryPerimeter=0;exitX=0.983;exitY=0.517;exitDx=0;exitDy=0;exitPerimeter=0;labelBackgroundColor=none;strokeColor=#23445D;" edge="1" parent="1" source="NhWhDlvbDUuo_tMWZjLB-2" target="R8vFkyPxmufn6Cymb-W6-3">
          <mxGeometry width="50" height="50" relative="1" as="geometry">
            <mxPoint x="731" y="541" as="sourcePoint" />
            <mxPoint x="665" y="418" as="targetPoint" />
          </mxGeometry>
        </mxCell>
        <mxCell id="R8vFkyPxmufn6Cymb-W6-8" value="Desactivaciones" style="ellipse;whiteSpace=wrap;html=1;labelBackgroundColor=none;fillColor=#182E3E;strokeColor=#FFFFFF;fontColor=#FFFFFF;" vertex="1" parent="1">
          <mxGeometry x="1205" y="770" width="101" height="40" as="geometry" />
        </mxCell>
        <mxCell id="R8vFkyPxmufn6Cymb-W6-9" value="Activo" style="ellipse;whiteSpace=wrap;html=1;labelBackgroundColor=none;fillColor=#182E3E;strokeColor=#FFFFFF;fontColor=#FFFFFF;" vertex="1" parent="1">
          <mxGeometry x="1312" y="501" width="80" height="40" as="geometry" />
        </mxCell>
        <mxCell id="R8vFkyPxmufn6Cymb-W6-10" value="Activo" style="ellipse;whiteSpace=wrap;html=1;labelBackgroundColor=none;fillColor=#182E3E;strokeColor=#FFFFFF;fontColor=#FFFFFF;" vertex="1" parent="1">
          <mxGeometry x="1221" y="256" width="80" height="40" as="geometry" />
        </mxCell>
        <mxCell id="R8vFkyPxmufn6Cymb-W6-11" value="Codigo" style="ellipse;whiteSpace=wrap;html=1;labelBackgroundColor=none;fillColor=#182E3E;strokeColor=#FFFFFF;fontColor=#FFFFFF;" vertex="1" parent="1">
          <mxGeometry x="1295" y="548" width="80" height="40" as="geometry" />
        </mxCell>
        <mxCell id="R8vFkyPxmufn6Cymb-W6-12" value="" style="endArrow=none;html=1;rounded=0;exitX=1.008;exitY=0.483;exitDx=0;exitDy=0;exitPerimeter=0;labelBackgroundColor=none;fontColor=default;entryX=0.05;entryY=0.675;entryDx=0;entryDy=0;entryPerimeter=0;strokeColor=#23445D;" edge="1" parent="1" source="NhWhDlvbDUuo_tMWZjLB-3">
          <mxGeometry width="50" height="50" relative="1" as="geometry">
            <mxPoint x="1170" y="624" as="sourcePoint" />
            <mxPoint x="1315.04" y="524" as="targetPoint" />
          </mxGeometry>
        </mxCell>
        <mxCell id="R8vFkyPxmufn6Cymb-W6-13" value="" style="endArrow=none;html=1;rounded=0;exitX=1;exitY=0.55;exitDx=0;exitDy=0;exitPerimeter=0;labelBackgroundColor=none;fontColor=default;entryX=0.063;entryY=0.75;entryDx=0;entryDy=0;entryPerimeter=0;strokeColor=#23445D;" edge="1" parent="1" source="NhWhDlvbDUuo_tMWZjLB-3" target="R8vFkyPxmufn6Cymb-W6-11">
          <mxGeometry width="50" height="50" relative="1" as="geometry">
            <mxPoint x="1190" y="652" as="sourcePoint" />
            <mxPoint x="1296" y="620" as="targetPoint" />
          </mxGeometry>
        </mxCell>
        <mxCell id="R8vFkyPxmufn6Cymb-W6-14" value="" style="endArrow=none;html=1;rounded=0;exitX=0.85;exitY=0.967;exitDx=0;exitDy=0;exitPerimeter=0;labelBackgroundColor=none;fontColor=default;entryX=0.416;entryY=0.05;entryDx=0;entryDy=0;entryPerimeter=0;strokeColor=#23445D;" edge="1" parent="1" source="NhWhDlvbDUuo_tMWZjLB-3" target="R8vFkyPxmufn6Cymb-W6-8">
          <mxGeometry width="50" height="50" relative="1" as="geometry">
            <mxPoint x="1200" y="662" as="sourcePoint" />
            <mxPoint x="1306" y="630" as="targetPoint" />
          </mxGeometry>
        </mxCell>
        <mxCell id="R8vFkyPxmufn6Cymb-W6-15" value="Activo" style="ellipse;whiteSpace=wrap;html=1;labelBackgroundColor=none;fillColor=#182E3E;strokeColor=#FFFFFF;fontColor=#FFFFFF;" vertex="1" parent="1">
          <mxGeometry x="982" y="924" width="80" height="40" as="geometry" />
        </mxCell>
        <mxCell id="R8vFkyPxmufn6Cymb-W6-16" value="" style="endArrow=none;html=1;rounded=0;entryX=0.988;entryY=0.625;entryDx=0;entryDy=0;exitX=-0.008;exitY=0.65;exitDx=0;exitDy=0;labelBackgroundColor=none;fontColor=default;entryPerimeter=0;exitPerimeter=0;strokeColor=#23445D;" edge="1" parent="1" source="NhWhDlvbDUuo_tMWZjLB-40" target="R8vFkyPxmufn6Cymb-W6-15">
          <mxGeometry width="50" height="50" relative="1" as="geometry">
            <mxPoint x="1190" y="930" as="sourcePoint" />
            <mxPoint x="1208" y="890" as="targetPoint" />
          </mxGeometry>
        </mxCell>
        <mxCell id="R8vFkyPxmufn6Cymb-W6-17" value="Activo" style="ellipse;whiteSpace=wrap;html=1;labelBackgroundColor=none;fillColor=#182E3E;strokeColor=#FFFFFF;fontColor=#FFFFFF;" vertex="1" parent="1">
          <mxGeometry x="236" y="608" width="80" height="40" as="geometry" />
        </mxCell>
        <mxCell id="R8vFkyPxmufn6Cymb-W6-19" value="" style="endArrow=none;html=1;rounded=0;labelBackgroundColor=none;fontColor=default;exitX=-0.003;exitY=0.837;exitDx=0;exitDy=0;exitPerimeter=0;entryX=0.68;entryY=0.05;entryDx=0;entryDy=0;entryPerimeter=0;strokeColor=#23445D;" edge="1" parent="1" source="NhWhDlvbDUuo_tMWZjLB-4" target="R8vFkyPxmufn6Cymb-W6-17">
          <mxGeometry width="50" height="50" relative="1" as="geometry">
            <mxPoint x="340" y="560" as="sourcePoint" />
            <mxPoint x="292" y="608" as="targetPoint" />
          </mxGeometry>
        </mxCell>
      </root>
    </mxGraphModel>
  </diagram>
</mxfile>
